<svg viewBox="0 0 65 19" xmlns="http://www.w3.org/2000/svg" fill-rule="evenodd" clip-rule="evenodd" stroke-linejoin="round" stroke-miterlimit="2"><path d="M28.0298 17.9339c-.17881 0-.49174-.22352-.93877-.67056-.44704-.44703-.75997-.90897-.93879-1.38581-1.07289-3.03987-2.4736-4.91743-4.20216-5.63269-1.72855-.71526-3.78492-.56625-6.16913.44704-1.37091.53645-2.84614.62585-4.42568.26822-1.57953-.35763-3.11436-.98348-4.6045-1.87756-1.49012-.89407-2.83124-1.96697-4.02334-3.21867C1.53533 4.61216.64125 3.36045.0452 2.10874c-.0596-.0596-.0596-.32783 0-.80467S.22402.4398.40283.14177c.11921-.0596.32783-.1043.62586-.1341.29802-.02981.53644.0149.71526.1341C3.23408.91664 4.33677 1.75111 5.05203 2.6452 6.36334 4.19492 7.76406 5.28272 9.2542 5.90857c1.49013.62585 3.21868.78977 5.18565.49174 4.5896-.53644 8.82156-.50664 12.69589.0894 1.60934.23843 3.20377.58116 4.78331 1.0282 1.57954.44704 3.14417.90898 4.6939 1.38582.65566.17881 1.32622.37253 2.01168.58115.68545.20861 1.35601.40233 2.01167.58115l2.68223.80467c1.78815.47684 3.5614.96858 5.31976 1.47522 1.75835.50665 3.5316.99839 5.31975 1.47523 3.27828 1.0729 5.63269-.0596 7.06321-3.3975.23842-.47683.56625-.96858.98348-1.47522.41724-.50664.92388-.81957 1.51993-.93878.65566.47684 1.0431 1.1772 1.1623 2.10108.11921.92388.11921 1.71365 0 2.3693-.65565 2.50342-1.81795 4.29157-3.4869 5.36446-1.60933 1.0133-3.6061 1.25171-5.99031.71527-1.90736-.47685-3.82963-1.0133-5.7668-1.60934a186.04822 186.04822 0 01-5.76679-1.87756 92.87381 92.87381 0 00-2.68223-.84938 92.87381 92.87381 0 01-2.68223-.84937c-.47684-.17881-.95368-.32783-1.43052-.44704l-1.43053-.35763-2.23519-.62585-.26822.71526-.53645 1.34111c-.1192.41724-.23842.80467-.35763 1.1623-.1192.35763-.29802.65566-.53644.89408-.53645.53645-1.1325.98349-1.78816 1.34112-.65565.35763-1.2219.53644-1.69874.53644z" fill="#364050" fill-rule="nonzero"/></svg>